<svg width="1139" height="403" viewBox="0 0 1139 403" fill="none" xmlns="http://www.w3.org/2000/svg">
<g clip-path="url(#clip0_15694_861)">
<path d="M339.24 187C319.85 187.52 300.36 191.99 282.84 199.91C264.95 208.01 250.68 219.85 239.05 230.51C241.52 236.15 243.27 242.25 244.25 248.65C248.84 278.59 241.52 322.11 214.58 346.91C204.26 356.42 191.41 361.51 178.58 361.51C174.35 361.51 170.12 360.96 165.98 359.83C148.89 355.17 133.5 341.81 124.8 324.09C114.97 304.06 113.26 281.12 112.42 261.19C111.8 246.53 111.48 232.18 111.47 218.5C89.0201 226.92 65.5201 232.58 42.7601 238.04C39.6701 238.78 36.6901 237.94 34.5801 235.73C32.3301 233.36 31.4301 229.73 32.3301 226.7C33.1501 223.94 35.2601 222.02 38.2601 221.3L39.8501 220.92C63.8301 215.15 88.6201 209.19 111.66 199.84C111.75 195.55 111.87 191.26 112.02 186.97C112.96 161.17 115.02 137.96 118.31 115.99C121.01 97.96 126.24 75.47 142.76 61.4C155.76 50.33 176.6 43.76 193.81 54.03C206.72 61.73 214.69 77.17 215.69 96.38C217.38 129.42 197.7 164.8 163.04 191.03C152.94 198.68 141.74 205.31 128.84 211.27L128.82 213.16C128.72 236.14 129.19 254.81 130.33 271.88C131.41 288.15 133.81 306.82 143.46 321.93C150.72 333.31 165.25 345.95 182.33 344.11C197.13 342.53 207.14 331.01 212.92 321.62C225.14 301.82 233.98 268.96 225.24 242.49C211.54 252.55 198.62 255.45 185.8 251.36C177.05 248.56 170.25 242.68 167.15 235.19C164.35 228.42 164.83 220.8 168.49 213.72C172.36 206.21 178.52 201.13 186.26 199.03C195.94 196.41 207.7 198.64 217.73 204.99C222.17 207.8 226.2 211.32 229.73 215.46C231.84 213.35 233.8 211.44 235.78 209.71C248.02 199.05 261.7 190.34 276.46 183.87C302.27 172.53 330.1 167.97 357.79 170.4C356.08 155.71 353.36 141.89 349.61 130.21C335.59 86.48 308.36 55.88 266.78 29.97C242.81 15.07 216.34 1.46002 188.12 0.110023C165.19 -0.979977 143.27 6.14002 122.83 14.6C97.9801 24.89 73.9701 37.51 55.0901 55.32C9.62006 98.16 0.270058 163.83 5.82999e-05 225.25C-0.109942 251.38 1.07006 277.91 9.17006 303.39C45.1401 416.5 221.25 431.91 295.75 355.53C322.29 328.32 337.13 314.96 349.57 279.86C358.18 255.6 361.2 220.78 359.28 187.88C352.67 187.13 345.96 186.81 339.23 187" fill="white"/>
<path d="M190.01 215.62C186.76 216.98 183.8 220.46 182.82 224.05C182.36 225.77 182.14 228.28 183.79 230.49C187.16 235.03 194.51 235.72 196.69 235.82C203.35 236.15 209.73 233.52 217.22 227.36C215.47 225.22 213.55 223.32 211.49 221.7C205.26 216.8 196.2 213.02 190.02 215.62" fill="white"/>
<path d="M197.77 91.13C195.8 79.39 188.52 66.12 174.45 66.12C173.91 66.12 173.36 66.14 172.8 66.18C156.32 67.36 145.4 82.2 140.68 95.68C134.91 112.16 133.34 130.32 131.82 147.88L131.5 151.5C130.38 164.3 129.59 177.84 129.18 191.8C137.62 187.45 145.19 182.77 152.25 177.54C176.88 159.31 203.58 125.73 197.76 91.13" fill="white"/>
<path d="M1112.34 73.27V130.89C1106.22 120.13 1089.12 114.22 1078.15 114.22C1047.76 114.22 1025.17 132.79 1025.17 168.68C1025.17 204.57 1048.18 223.13 1078.78 223.13C1091.44 223.13 1104.32 218.91 1112.34 206.46L1114.03 220.81H1138.09V73.27H1112.34ZM1080.48 138.28C1096.73 138.28 1110.66 150.52 1110.66 168.67C1110.66 186.82 1096.73 199.27 1080.48 199.27C1064.23 199.27 1050.93 186.82 1050.93 168.67C1050.93 150.52 1064.02 138.28 1080.48 138.28ZM929.36 156.64C933.16 143.13 944.55 136.38 958.49 136.38C973.26 136.38 983.82 143.14 985.51 156.64H929.37H929.36ZM1010.19 177.96C1014.2 135.12 992.46 113.59 957.64 113.59C922.82 113.59 902.34 136.38 902.34 168.05C902.34 201.39 923.66 223.56 959.54 223.56C975.37 223.56 993.31 218.07 1004.28 206.68L987.81 190.43C981.9 196.55 969.45 200.14 959.95 200.14C941.8 200.14 930.61 190.86 928.92 177.98H1010.18L1010.19 177.96ZM807.79 116.75V140.18H853.8L803.99 210.04V220.8H891.58V195.47H843.25L891.16 128.99V116.75H807.79ZM743 138.07C760.31 138.07 771.28 153.26 771.28 168.89C771.28 184.52 761.79 199.49 743 199.49C724.21 199.49 714.72 184.72 714.72 168.89C714.72 153.06 724.43 138.07 743 138.07ZM742.79 114.64C709.66 114.64 688.97 139.12 688.97 168.88C688.97 198.64 709.23 223.12 743 223.12C776.77 223.12 797.24 198.85 797.24 168.88C797.24 138.91 775.92 114.64 742.78 114.64M621.85 138.07C639.16 138.07 650.13 153.26 650.13 168.89C650.13 184.52 640.63 199.49 621.85 199.49C603.07 199.49 593.57 184.72 593.57 168.89C593.57 153.06 603.28 138.07 621.85 138.07ZM621.64 114.64C588.51 114.64 567.82 139.12 567.82 168.88C567.82 198.64 588.08 223.12 621.85 223.12C655.62 223.12 676.09 198.85 676.09 168.88C676.09 138.91 654.77 114.64 621.63 114.64M440.77 73.27V220.8H464.83L466.51 206.45C474.53 218.9 487.41 223.12 500.07 223.12C530.68 223.12 553.68 202.86 553.68 168.67C553.68 132.79 531.1 114.21 500.71 114.21C489.73 114.21 472.64 120.12 466.52 130.88V73.26H440.78L440.77 73.27ZM498.39 138.28C514.85 138.28 527.94 149.89 527.94 168.67C527.94 187.45 514.85 199.27 498.39 199.27C481.93 199.27 468.21 187.45 468.21 168.67C468.21 149.89 482.14 138.28 498.39 138.28Z" fill="white"/>
<path d="M1101.18 286.43C1097.39 283.11 1093.54 282.11 1088.42 282.11C1082.43 282.11 1074.59 284.77 1074.59 292.35C1074.59 299.93 1081.97 302.05 1088.15 302.52C1092.81 302.79 1094.67 303.72 1094.67 305.98C1094.67 308.38 1091.81 309.97 1088.75 309.91C1085.09 309.84 1079.77 307.91 1077.45 305.32L1073.46 311.11C1078.25 316.09 1083.43 316.95 1088.62 316.95C1097.99 316.95 1102.71 311.97 1102.71 306.18C1102.71 297.47 1094.87 296.08 1088.69 295.68C1084.5 295.41 1082.57 294.21 1082.57 292.09C1082.57 289.97 1084.7 288.83 1088.56 288.83C1091.69 288.83 1094.35 289.56 1096.67 291.76L1101.19 286.44L1101.18 286.43ZM1046.4 283.04V315.82H1054.5V298.53C1054.5 292.48 1058.43 290.22 1062.68 290.22C1065.34 290.22 1066.87 290.95 1068.53 292.35L1072.19 285.3C1070.39 283.51 1067.13 282.18 1063.74 282.18C1060.35 282.18 1057.02 282.78 1054.5 286.83L1053.91 283.05H1046.4V283.04ZM1023.72 289.75C1029.17 289.75 1032.64 294.54 1032.64 299.47C1032.64 304.4 1029.64 309.11 1023.72 309.11C1017.8 309.11 1014.81 304.45 1014.81 299.47C1014.81 294.49 1017.87 289.75 1023.72 289.75ZM1023.65 282.38C1013.2 282.38 1006.69 290.09 1006.69 299.47C1006.69 308.85 1013.07 316.55 1023.71 316.55C1034.35 316.55 1040.8 308.91 1040.8 299.47C1040.8 290.03 1034.09 282.38 1023.65 282.38ZM985.02 274.66V283.1H978.9V290.08H985.02V304.25C985.02 312.43 989.67 316.48 996.79 316.21C999.25 316.14 1001.18 315.74 1003.51 314.81L1001.24 307.9C1000.05 308.5 998.58 308.9 997.32 308.9C994.79 308.9 993.06 307.37 993.06 304.24V290.07H1002.17V283.09H993.13V273.78L985.02 274.64V274.66ZM958.48 289.49C971.25 289.49 971.25 309.38 958.48 309.38C953.09 309.38 948.77 305.65 948.77 299.4C948.77 293.15 953.09 289.49 958.48 289.49ZM968.2 287.56C966.33 284.31 962.15 282.25 957.75 282.25C948.17 282.18 940.67 288.09 940.67 299.4C940.67 310.71 947.84 316.88 957.55 316.82C961.21 316.75 966.33 314.89 968.2 311.04L968.59 315.82H976.23V283.05H968.46L968.2 287.56ZM910.74 295.61C911.94 291.35 915.53 289.22 919.92 289.22C924.58 289.22 927.9 291.35 928.43 295.61H910.74ZM936.21 302.32C937.48 288.82 930.62 282.05 919.65 282.05C908.68 282.05 902.23 289.22 902.23 299.2C902.23 309.71 908.95 316.68 920.25 316.68C925.24 316.68 930.89 314.96 934.35 311.37L929.16 306.25C927.29 308.18 923.37 309.31 920.38 309.31C914.66 309.31 911.14 306.38 910.61 302.32H936.21ZM874.84 283.04V315.82H882.94V298.53C882.94 292.48 886.87 290.22 891.12 290.22C893.78 290.22 895.31 290.95 896.97 292.35L900.63 285.3C898.84 283.51 895.58 282.18 892.19 282.18C888.8 282.18 885.47 282.78 882.95 286.83L882.35 283.05H874.85L874.84 283.04ZM865.78 306.32C863.79 308.31 861.19 309.05 858.6 309.05C853.54 309.05 849.29 305.72 849.29 299.47C849.29 293.75 853.28 289.75 858.73 289.75C860.99 289.75 863.39 290.62 865.31 292.35L870.43 286.96C866.84 283.44 863.25 282.11 858.6 282.11C849.09 282.11 841.19 287.83 841.19 299.47C841.19 311.11 849.09 316.82 858.6 316.82C863.46 316.82 867.44 315.36 871.23 311.64L865.78 306.32ZM797.96 295.61C799.15 291.35 802.75 289.22 807.13 289.22C811.79 289.22 815.11 291.35 815.64 295.61H797.95H797.96ZM823.43 302.32C824.7 288.82 817.84 282.05 806.87 282.05C795.9 282.05 789.45 289.22 789.45 299.2C789.45 309.71 796.17 316.68 807.47 316.68C812.46 316.68 818.11 314.96 821.57 311.37L816.38 306.25C814.52 308.18 810.59 309.31 807.6 309.31C801.88 309.31 798.36 306.38 797.82 302.32H823.42H823.43ZM780.54 306.32C778.54 308.31 775.95 309.05 773.36 309.05C768.3 309.05 764.05 305.72 764.05 299.47C764.05 293.75 768.04 289.75 773.49 289.75C775.76 289.75 778.15 290.62 780.07 292.35L785.19 286.96C781.6 283.44 778.01 282.11 773.35 282.11C763.84 282.11 755.94 287.83 755.94 299.47C755.94 311.11 763.84 316.82 773.35 316.82C778.21 316.82 782.19 315.36 785.98 311.64L780.53 306.32H780.54ZM750.88 315.82V298.59C750.88 288.29 744.7 282.51 736.99 282.51C732.86 282.51 729.54 284.17 726.21 287.43L725.68 282.98H718.44V315.82H726.48V299.07C726.48 294.08 729.87 289.89 734.86 289.89C739.85 289.89 742.77 293.68 742.77 298.67V315.83H750.88V315.82ZM686.91 295.61C688.11 291.35 691.7 289.22 696.08 289.22C700.74 289.22 704.06 291.35 704.59 295.61H686.9H686.91ZM712.38 302.32C713.64 288.82 706.79 282.05 695.82 282.05C684.85 282.05 678.39 289.22 678.39 299.2C678.39 309.71 685.11 316.68 696.41 316.68C701.4 316.68 707.05 314.96 710.5 311.37L705.31 306.25C703.45 308.18 699.52 309.31 696.53 309.31C690.81 309.31 687.29 306.38 686.76 302.32H712.36H712.38ZM663.71 273.8C663.71 280.12 673.28 280.12 673.28 273.8C673.28 267.48 663.71 267.48 663.71 273.8ZM672.54 315.82H664.43V282.91H672.54V315.82ZM635.58 283.04V315.82H643.68V298.53C643.68 292.48 647.61 290.22 651.86 290.22C654.52 290.22 656.05 290.95 657.71 292.35L661.37 285.3C659.57 283.51 656.31 282.18 652.93 282.18C649.55 282.18 646.21 282.78 643.69 286.83L643.09 283.05H635.59L635.58 283.04ZM603.86 295.61C605.05 291.35 608.65 289.22 613.03 289.22C617.69 289.22 621.01 291.35 621.54 295.61H603.85H603.86ZM629.32 302.32C630.59 288.82 623.73 282.05 612.76 282.05C601.79 282.05 595.34 289.22 595.34 299.2C595.34 309.71 602.06 316.68 613.36 316.68C618.35 316.68 624 314.96 627.46 311.37L622.27 306.25C620.41 308.18 616.48 309.31 613.49 309.31C607.77 309.31 604.25 306.38 603.71 302.32H629.31H629.32ZM563.35 329.52V311.97C565.68 315.55 570.8 316.62 574.26 316.62C584.77 316.62 590.82 309.05 590.82 299.47C590.82 289.89 584.11 282.31 574 282.31C570.27 282.31 565.88 283.91 563.35 287.56L562.82 283.05H555.25V329.52H563.35ZM573.4 308.78C567.88 308.78 564.08 304.59 564.08 299.47C564.08 294.35 567.54 290.15 573.4 290.15C579.26 290.15 582.71 294.34 582.71 299.47C582.71 304.6 578.92 308.78 573.4 308.78ZM534.3 294.14L527.85 283.04H518.14V283.3L528.91 299.19L517.47 315.61V315.81H527.18L534.3 304.84L541.42 315.81H551.13V315.61L539.69 299.19L550.46 283.3V283.04H540.75L534.3 294.14ZM488.81 295.61C490.01 291.35 493.6 289.22 497.99 289.22C502.64 289.22 505.97 291.35 506.5 295.61H488.81ZM514.28 302.32C515.54 288.82 508.69 282.05 497.72 282.05C486.75 282.05 480.3 289.22 480.3 299.2C480.3 309.71 487.02 316.68 498.32 316.68C503.31 316.68 508.96 314.96 512.42 311.37L507.23 306.25C505.36 308.18 501.44 309.31 498.45 309.31C492.73 309.31 489.21 306.38 488.68 302.32H514.28Z" fill="white"/>
</g>
<defs>
<clipPath id="clip0_15694_861">
<rect width="1138.09" height="402.79" fill="white"/>
</clipPath>
</defs>
</svg>
